<?xml version="1.0" standalone="no"?>
<!DOCTYPE svg PUBLIC "-//W3C//DTD SVG 20010904//EN"
 "http://www.w3.org/TR/2001/REC-SVG-20010904/DTD/svg10.dtd">
<svg version="1.0" xmlns="http://www.w3.org/2000/svg"
 width="1528.000000pt" height="1588.000000pt" viewBox="0 0 1528.000000 1588.000000"
 preserveAspectRatio="xMidYMid meet">

<g transform="translate(0.000000,1588.000000) scale(0.100000,-0.100000)"
fill="#000000" stroke="none">
<path d="M0 7940 l0 -7940 7640 0 7640 0 0 7940 0 7940 -7640 0 -7640 0 0
-7940z m8835 6826 c28 -3 509 -8 1070 -11 561 -4 1034 -8 1050 -11 17 -2 701
-7 1520 -10 1591 -7 1517 -4 1616 -55 56 -28 121 -95 153 -155 55 -106 54 -97
66 -1011 17 -1321 28 -2095 42 -2898 13 -733 15 -3130 7 -6225 -2 -773 0
-1684 4 -2025 8 -548 7 -627 -7 -678 -26 -99 -74 -188 -127 -237 -71 -66 -72
-67 -141 -102 l-63 -32 -310 -7 c-170 -5 -366 -13 -435 -19 -195 -16 -522 -29
-915 -35 -513 -8 -1441 -34 -2010 -55 -143 -6 -541 -15 -885 -20 -344 -6 -659
-13 -700 -15 -80 -6 -3721 -25 -3730 -20 -3 2 -329 6 -725 9 -396 4 -758 9
-805 11 -47 3 -285 9 -530 15 -500 11 -821 26 -925 42 -38 6 -187 12 -330 13
l-260 2 -55 -28 c-86 -44 -141 -53 -213 -34 -110 28 -164 83 -218 224 -16 43
-16 226 0 426 9 109 10 233 3 455 -5 168 -10 595 -11 949 -1 354 -3 646 -5
650 -2 3 -7 215 -10 471 -4 256 -11 701 -17 990 -10 522 -2 1595 21 2980 6
333 12 799 15 1035 3 237 10 725 15 1085 5 360 14 1229 19 1930 6 701 15 1478
22 1725 11 445 12 451 36 500 41 84 85 123 170 152 43 14 279 16 2492 19 1343
1 2446 6 2450 9 7 8 2577 -1 2656 -9z"/>
<path d="M8661 13469 c-45 -14 -109 -57 -116 -80 -4 -11 -10 -19 -14 -19 -4 0
-13 -25 -20 -56 -13 -57 -12 -64 20 -184 19 -73 49 -208 49 -223 0 -13 -26
-14 -202 -10 -201 5 -204 5 -258 -20 -30 -14 -69 -39 -87 -56 -29 -29 -73
-122 -73 -157 0 -46 34 -126 72 -169 48 -55 91 -83 173 -114 33 -13 69 -26 80
-31 33 -12 87 -27 145 -41 30 -6 93 -25 140 -41 47 -17 94 -32 105 -35 11 -3
25 -10 31 -15 17 -12 37 -125 84 -468 5 -36 14 -99 20 -140 6 -41 15 -115 21
-165 6 -49 15 -124 20 -165 5 -41 14 -114 19 -162 6 -49 14 -127 20 -175 38
-342 52 -502 45 -522 -3 -9 -21 -27 -41 -41 -56 -38 -165 -152 -162 -170 2 -9
16 -16 36 -18 23 -2 32 -8 32 -21 0 -52 48 -104 125 -133 36 -14 41 -20 47
-59 22 -131 68 -1384 68 -1827 0 -276 -10 -394 -45 -508 -30 -101 -11 -194 56
-263 103 -108 307 -107 413 1 42 44 58 71 81 143 76 241 115 916 95 1675 -11
450 -24 682 -59 1085 -5 58 -5 107 0 117 20 38 94 76 170 88 209 32 371 44
770 61 360 16 616 2 794 -40 22 -6 62 -15 88 -21 128 -31 247 -112 286 -195
50 -106 53 -114 92 -265 43 -168 64 -357 64 -590 0 -168 -16 -389 -35 -495 -5
-27 -14 -79 -20 -115 -12 -68 -25 -131 -40 -190 -20 -77 -42 -168 -55 -220 -7
-30 -20 -77 -29 -105 -9 -27 -21 -66 -27 -85 -6 -19 -14 -44 -19 -55 -5 -11
-27 -74 -49 -140 -46 -138 -93 -269 -114 -317 -8 -18 -61 -152 -117 -298 -56
-146 -106 -274 -110 -285 -29 -68 -50 -148 -50 -188 0 -26 3 -47 6 -47 14 0
84 84 106 126 8 16 24 45 35 64 11 20 37 69 57 110 21 41 43 84 49 95 69 125
271 531 350 705 21 46 67 158 123 300 25 63 49 124 54 135 4 11 20 61 35 110
15 50 33 108 40 130 42 132 82 331 127 625 17 114 17 653 0 770 -53 356 -92
495 -163 586 -19 24 -46 49 -61 56 -16 7 -28 16 -28 19 0 4 -10 9 -22 12 -13
3 -57 14 -98 25 -172 47 -198 53 -265 66 -318 62 -793 65 -1190 6 -33 -5 -89
-12 -125 -15 l-65 -6 26 24 c14 14 44 36 67 51 39 24 67 45 96 71 6 6 27 22
46 35 19 13 41 30 48 37 7 7 17 13 21 13 4 0 16 8 27 18 10 10 35 28 54 42 19
13 37 27 40 30 3 3 23 18 45 35 22 16 42 32 45 35 3 3 21 17 40 30 19 13 37
27 40 30 3 3 23 19 45 36 35 25 73 57 109 89 6 6 29 23 51 39 35 26 151 122
165 136 3 3 32 28 65 55 33 28 66 56 73 63 8 7 42 31 76 54 33 23 63 45 66 48
3 4 32 25 66 47 70 45 161 110 188 135 11 10 23 18 27 18 4 0 14 6 21 13 7 7
29 24 48 37 19 13 37 27 40 30 3 3 32 27 65 55 76 63 113 104 148 168 24 43
30 68 37 167 10 123 2 174 -33 221 -10 13 -21 29 -25 34 -15 23 -70 54 -132
75 -61 20 -94 22 -550 31 -1881 36 -2104 42 -2121 56 -8 6 -20 33 -28 60 -39
139 -112 323 -133 331 -4 2 -8 9 -8 15 0 10 -19 37 -58 82 -22 25 -79 71 -102
82 -72 33 -118 39 -179 22z m1444 -1355 c264 -3 590 -2 723 3 134 4 248 5 253
2 9 -5 -74 -85 -156 -149 -22 -17 -44 -37 -50 -43 -5 -7 -32 -30 -60 -52 -27
-22 -77 -62 -110 -90 -32 -27 -64 -53 -70 -58 -15 -11 -57 -46 -85 -70 -14
-12 -47 -40 -75 -62 -27 -22 -52 -42 -55 -45 -11 -11 -117 -97 -150 -122 -19
-14 -45 -34 -56 -44 -12 -11 -39 -32 -60 -49 -21 -16 -64 -50 -95 -75 -31 -25
-68 -54 -83 -65 -27 -19 -43 -33 -84 -66 -11 -9 -55 -43 -98 -75 -44 -32 -81
-61 -84 -64 -13 -15 -174 -130 -181 -130 -4 0 -10 26 -13 58 -4 31 -11 87 -16
124 -6 38 -15 97 -20 133 -26 175 -36 242 -60 383 -5 31 -14 89 -20 127 -7 39
-15 86 -20 105 -5 19 -11 60 -15 90 -4 30 -14 84 -22 120 -7 36 -16 80 -20 99
l-6 34 154 -6 c85 -4 370 -10 634 -13z"/>
<path d="M3562 13288 c-52 -19 -134 -89 -158 -133 -6 -11 -17 -44 -24 -72 -12
-46 -11 -66 5 -160 10 -60 22 -137 26 -173 5 -36 11 -70 13 -77 11 -27 -28
-32 -284 -38 -146 -3 -278 -8 -295 -11 -130 -23 -245 -169 -253 -319 -3 -58 0
-79 21 -125 31 -70 75 -120 140 -162 29 -18 65 -45 81 -60 16 -16 35 -28 42
-28 8 0 14 -3 14 -8 0 -14 115 -51 195 -63 44 -6 152 -14 240 -18 l160 -6 7
-85 c20 -242 49 -1511 48 -2156 l0 -241 -25 -23 c-14 -13 -25 -27 -25 -31 0
-4 -52 -58 -116 -121 -137 -134 -154 -162 -154 -255 1 -58 5 -74 28 -108 15
-22 48 -53 72 -69 39 -26 55 -31 132 -34 l88 -4 0 -317 c0 -354 -14 -1161 -30
-1646 -5 -176 -14 -473 -20 -660 -32 -1019 -64 -1673 -100 -1990 -10 -90 -13
-117 -44 -299 -13 -77 -15 -110 -7 -148 26 -121 128 -198 261 -198 131 0 238
79 268 200 6 25 13 137 16 250 7 285 33 751 66 1185 45 585 59 814 100 1660
10 214 22 533 40 1050 6 160 11 448 11 640 1 193 4 457 8 588 l6 238 66 64
c36 35 76 66 90 69 13 2 76 14 139 26 63 12 133 26 155 30 22 5 67 13 100 20
33 7 78 16 100 20 79 16 162 31 250 46 50 8 117 19 150 25 288 48 522 76 835
100 180 13 699 7 775 -9 28 -6 100 -21 160 -32 207 -40 231 -57 280 -205 39
-120 55 -250 55 -465 0 -205 -12 -342 -50 -555 -5 -27 -16 -93 -25 -145 -24
-135 -66 -316 -115 -485 -5 -16 -12 -41 -15 -55 -4 -14 -13 -45 -20 -70 -7
-25 -18 -65 -25 -90 -7 -25 -16 -54 -21 -65 -5 -11 -31 -87 -58 -170 -47 -144
-87 -253 -117 -322 -8 -18 -26 -63 -40 -100 -24 -64 -35 -90 -90 -210 -13 -29
-36 -79 -50 -110 -81 -179 -329 -658 -354 -683 -3 -3 -11 -16 -19 -30 -51 -89
-84 -144 -125 -210 -110 -176 -132 -211 -146 -227 -8 -10 -30 -41 -48 -69 -18
-28 -41 -62 -52 -74 -11 -13 -20 -27 -20 -31 0 -4 -6 -14 -13 -21 -7 -7 -40
-51 -72 -98 -62 -90 -183 -252 -195 -260 -3 -3 -20 -25 -37 -50 -17 -25 -41
-56 -53 -70 -12 -14 -31 -36 -43 -50 -12 -14 -40 -47 -62 -75 -22 -27 -42 -52
-45 -55 -3 -3 -28 -32 -55 -65 -28 -33 -59 -69 -70 -80 -11 -12 -47 -52 -80
-90 -81 -94 -571 -583 -670 -670 -44 -39 -87 -77 -95 -85 -8 -9 -37 -34 -65
-55 -27 -22 -57 -47 -65 -55 -8 -8 -37 -33 -65 -55 -27 -21 -52 -42 -55 -45
-3 -3 -21 -17 -40 -30 -19 -13 -42 -31 -50 -39 -24 -23 -233 -177 -260 -191
-14 -7 -27 -16 -30 -20 -3 -3 -34 -26 -70 -50 -36 -24 -71 -50 -78 -57 -7 -7
-18 -13 -23 -13 -6 0 -29 -13 -52 -29 -49 -33 -185 -115 -207 -124 -8 -4 -37
-20 -65 -37 -75 -45 -454 -230 -471 -230 -3 0 -20 -6 -37 -14 -43 -19 -113
-45 -167 -62 -25 -8 -54 -19 -65 -23 -40 -17 -81 -29 -155 -45 -41 -9 -91 -21
-110 -26 -19 -5 -73 -16 -119 -25 -103 -19 -151 -40 -151 -66 0 -33 44 -42
174 -35 110 6 216 21 326 48 74 18 267 78 315 98 11 4 43 16 70 25 28 10 54
22 60 26 5 5 15 9 22 9 7 0 35 10 61 21 26 12 72 33 102 47 133 59 460 232
530 279 19 12 40 23 46 23 7 0 14 4 16 8 2 4 21 19 43 32 22 13 45 28 50 32 6
4 55 38 110 74 55 37 110 74 121 83 12 9 32 23 44 31 34 23 144 104 150 110 3
3 21 17 40 30 19 13 49 35 66 49 81 67 118 97 133 105 8 5 25 19 37 30 21 20
73 65 144 122 19 16 78 67 130 114 52 47 109 99 128 115 72 64 600 594 656
658 33 38 71 81 85 97 14 16 33 38 42 49 8 11 31 37 50 58 18 21 52 61 74 88
21 28 42 52 45 55 3 3 37 43 74 90 38 47 79 99 93 115 13 17 32 41 41 54 9 13
41 55 70 93 30 39 74 100 100 137 25 36 51 71 57 78 7 6 27 35 46 65 18 29 36
55 39 58 18 14 304 460 373 580 65 115 114 203 146 265 20 39 39 72 42 75 5 5
211 421 229 465 5 11 19 43 31 70 11 28 28 66 36 85 8 19 23 53 33 75 35 78
48 111 63 155 13 39 71 191 97 255 4 11 34 101 65 200 31 99 59 187 62 195 3
8 13 49 24 90 10 41 24 92 29 113 23 86 61 243 75 312 21 100 26 130 41 225
48 319 54 381 61 655 5 243 -8 547 -28 615 -6 19 -17 49 -25 67 -8 17 -14 34
-14 37 0 13 -71 91 -116 126 -19 15 -91 52 -129 65 -59 22 -184 32 -304 24
-69 -5 -216 -13 -326 -19 -205 -11 -276 -18 -475 -46 -141 -20 -189 -28 -260
-43 -30 -7 -93 -19 -140 -27 -127 -23 -240 -49 -460 -104 -19 -5 -64 -16 -100
-24 -36 -8 -83 -20 -105 -26 -22 -6 -56 -15 -75 -19 -19 -5 -55 -15 -80 -23
-43 -15 -115 -36 -245 -73 -33 -10 -98 -30 -145 -45 -146 -47 -170 -53 -175
-48 -6 5 10 22 141 148 49 47 185 177 302 290 407 390 628 607 1027 1006 220
220 427 423 460 450 33 27 67 56 75 64 8 8 42 37 75 65 33 27 65 54 71 60 6 5
32 28 59 50 26 22 60 52 76 66 15 14 49 44 75 65 26 21 57 48 68 59 12 11 51
46 88 79 38 32 125 116 194 186 134 136 181 204 204 298 21 89 -14 187 -95
268 -18 18 -36 41 -39 51 -10 29 -91 86 -143 101 -50 15 -110 13 -233 -8 -61
-10 -93 -15 -260 -40 -36 -6 -121 -17 -190 -26 -69 -8 -156 -19 -195 -24 -38
-5 -110 -14 -160 -20 -49 -6 -124 -15 -165 -20 -41 -5 -115 -14 -165 -20 -119
-14 -238 -27 -420 -46 -82 -8 -190 -19 -240 -24 -139 -15 -289 -30 -410 -41
-108 -10 -154 -14 -460 -40 -82 -7 -175 -13 -205 -13 l-55 -1 -7 45 c-4 25
-12 86 -18 135 -11 96 -38 192 -72 259 -72 142 -257 212 -406 154z m2828
-1091 c0 -7 -44 -58 -97 -113 -54 -55 -163 -170 -243 -254 -80 -85 -181 -190
-225 -235 -44 -44 -152 -157 -240 -250 -207 -219 -1118 -1130 -1260 -1260 -60
-55 -129 -119 -154 -143 -24 -23 -47 -39 -50 -36 -3 3 -6 106 -6 227 0 122 -4
562 -9 978 -7 612 -7 757 4 764 7 4 48 12 91 16 140 16 381 45 474 59 72 10
137 19 335 45 162 22 236 33 448 65 34 6 90 14 125 20 34 5 91 14 127 20 36 6
110 17 165 25 55 8 129 19 165 25 248 41 304 51 309 56 10 9 41 3 41 -9z"/>
<path d="M9245 6655 c-5 -2 -35 -10 -65 -20 -86 -25 -244 -116 -316 -180 -7
-5 -28 -23 -49 -40 -95 -79 -141 -121 -280 -260 -140 -140 -187 -190 -290
-311 -22 -26 -49 -57 -60 -68 -11 -12 -33 -39 -49 -61 -17 -22 -33 -42 -36
-45 -3 -3 -21 -25 -40 -50 -19 -25 -40 -51 -47 -58 -7 -7 -13 -17 -13 -21 0
-4 -8 -16 -18 -27 -104 -114 -405 -605 -522 -851 -84 -177 -141 -307 -163
-373 -9 -25 -34 -96 -56 -159 -22 -63 -50 -153 -61 -200 -11 -47 -25 -102 -30
-121 -25 -101 -33 -170 -32 -316 0 -167 7 -210 48 -301 30 -66 64 -106 134
-152 83 -55 82 -55 260 -102 522 -141 1225 -183 1965 -120 252 22 495 64 755
131 19 5 62 15 95 23 60 15 216 66 396 130 97 35 135 50 219 89 25 11 54 24
65 28 62 25 294 143 400 204 63 36 171 101 175 106 3 3 17 11 31 18 14 8 39
25 55 38 15 14 44 35 64 47 33 20 58 39 84 62 6 6 21 18 34 26 101 71 363 333
431 432 8 12 18 24 21 27 18 15 141 215 169 275 119 254 141 343 148 596 4
138 1 182 -16 266 -22 112 -58 209 -108 295 -18 31 -33 61 -33 66 0 6 -3 12
-7 14 -5 2 -28 30 -53 62 -54 72 -137 157 -205 211 -27 22 -57 47 -67 55 -55
49 -316 196 -454 256 -27 12 -70 31 -95 42 -45 20 -267 97 -324 112 -16 5 -68
20 -115 33 -47 14 -143 37 -215 51 -303 60 -300 60 -687 97 -127 12 -227 5
-194 -13 22 -12 117 -31 241 -48 50 -7 106 -16 125 -20 19 -5 60 -12 90 -15
30 -4 84 -14 120 -22 36 -8 83 -18 105 -23 22 -5 72 -19 110 -30 39 -12 84
-25 100 -30 131 -37 221 -69 303 -106 29 -13 57 -24 62 -24 6 0 18 -4 28 -9 9
-5 71 -35 137 -67 139 -67 279 -144 283 -156 2 -4 10 -8 17 -8 7 0 15 -4 17
-8 2 -5 32 -27 67 -51 83 -55 175 -138 258 -233 63 -72 146 -221 165 -297 39
-157 49 -273 29 -364 -5 -23 -15 -69 -22 -102 -26 -120 -95 -268 -193 -415
-76 -113 -246 -292 -351 -370 -33 -25 -62 -47 -65 -50 -3 -4 -27 -22 -55 -41
-27 -18 -56 -40 -63 -46 -7 -7 -19 -13 -27 -13 -7 0 -15 -3 -17 -7 -6 -15
-268 -166 -388 -225 -114 -54 -277 -128 -285 -128 -3 0 -24 -8 -48 -19 -115
-50 -358 -135 -447 -157 -30 -7 -73 -18 -95 -24 -94 -27 -302 -74 -390 -89
-38 -6 -108 -16 -155 -21 -47 -6 -132 -16 -190 -23 -141 -16 -745 -16 -915 1
-126 12 -314 36 -385 48 -137 23 -374 95 -475 144 l-50 25 -3 60 c-4 84 53
297 119 442 10 24 19 45 19 48 0 17 138 303 198 410 25 44 52 94 60 110 8 17
33 56 54 87 21 31 38 62 38 67 0 6 4 11 9 11 5 0 13 9 16 20 3 11 12 26 18 32
7 7 32 44 57 82 24 38 49 74 55 80 7 6 24 32 40 56 15 25 31 47 35 50 3 3 33
39 65 80 33 41 62 77 65 80 3 3 25 30 50 60 25 30 47 57 50 60 3 3 32 37 65
75 76 90 389 403 480 480 38 33 81 70 95 82 40 35 67 56 101 83 39 30 96 85
123 120 27 34 56 114 56 153 0 74 -55 164 -126 207 -58 37 -181 61 -229 45z"/>
</g>
</svg>
